Coordinates
version=1
nRows=9
nColumns=24
inDegrees=yes

Units are S.I. units (second, meters, Newtons, ...)
Angles are in degrees.

endheader
time	pelvis_tilt	pelvis_list	pelvis_rotation	pelvis_tx	pelvis_ty	pelvis_tz	hip_flexion_r	hip_adduction_r	hip_rotation_r	knee_angle_r	ankle_angle_r	subtalar_angle_r	mtp_angle_r	hip_flexion_l	hip_adduction_l	hip_rotation_l	knee_angle_l	ankle_angle_l	subtalar_angle_l	mtp_angle_l	lumbar_extension	lumbar_bending	lumbar_rotation
      1.22066667	     -0.37969523	      9.60741507	     -4.75770208	      0.16104013	      1.00456486	      0.31180757	     15.28361337	    -12.41903615	      0.42818239	    -68.33270653	     -7.29186352	     -4.48286340	      7.66674956	      8.75973830	     15.31621745	      5.44137255	    -14.25522529	      4.24838961	    -18.37632489	     -4.36407134	    -12.67635449	     -4.75366448	      0.11312173
      1.22483333	     -0.35874409	      9.43976412	     -4.78888987	      0.16607422	      1.00550676	      0.31173772	     15.80822909	    -12.17032694	      0.44597822	    -68.09686150	     -6.34000466	     -4.78002501	      7.33500095	      8.17400193	     15.16776598	      5.60537350	    -13.79900315	      4.19885079	    -18.46778594	     -4.46718184	    -12.71959301	     -4.48397842	     -0.15857549
      1.22900000	     -0.36979419	      9.21229694	     -4.83168732	      0.17106371	      1.00641068	      0.31172837	     16.34630148	    -11.82350423	      0.48886427	    -67.78209951	     -5.43684495	     -5.08095998	      7.26385642	      7.65357635	     14.94038479	      5.67897716	    -13.41277780	      4.23718051	    -18.43689354	     -4.49158242	    -12.75669146	     -4.17990168	     -0.23755850
      1.23316667	     -0.31589684	      9.02567074	     -4.84718334	      0.17610397	      1.00738231	      0.31166881	     16.78882277	    -11.55145192	      0.47244731	    -67.40122992	     -4.55172229	     -5.37420579	      6.93650516	      7.01996696	     14.77216891	      5.87302050	    -12.93679377	      4.18763784	    -18.52193883	     -4.59704180	    -12.83590380	     -3.89076771	     -0.61361299
      1.23733333	     -0.35548621	      8.81403115	     -4.86889102	      0.18111332	      1.00818575	      0.31164438	     17.32305245	    -11.22054170	      0.48533720	    -66.96315959	     -3.69092403	     -5.67479020	      6.88125124	      6.53331915	     14.55780098	      5.93986088	    -12.55360086	      4.22395963	    -18.49055589	     -4.61717275	    -12.81707333	     -3.61336892	     -0.66932711
      1.24150000	     -0.32408475	      8.61772712	     -4.88024454	      0.18613402	      1.00908504	      0.31155427	     17.75822596	    -10.92827575	      0.46877348	    -66.45686774	     -2.85212302	     -5.92173945	      6.02316866	      5.91866211	     14.38457875	      6.19397680	    -12.06148533	      4.10035738	    -18.76688157	     -4.89339657	    -12.87493764	     -3.26777313	     -1.10873942
      1.24566667	     -0.34078607	      8.38204993	     -4.83743019	      0.19114560	      1.00989963	      0.31147360	     18.20193873	    -10.58761877	      0.39496354	    -65.87712689	     -2.03108097	     -6.19125179	      3.55122183	      5.41149917	     14.14419953	      6.29649901	    -11.71075622	      4.22035387	    -18.52527288	     -5.64406601	    -12.89476754	     -2.92355441	     -1.38360396
      1.24983333	     -0.33640723	      8.17433683	     -4.85385133	      0.19614896	      1.01067484	      0.31145551	     18.63452587	    -10.25917229	      0.38875604	    -65.25339927	     -1.24171177	     -6.55493112	      3.53536767	      4.88287119	     13.93554032	      6.35762799	    -11.32912039	      4.24494090	    -18.51924283	     -5.64983468	    -12.94694584	     -2.65538060	     -1.40172897
      1.25400000	     -0.31536466	      7.93990919	     -4.83930490	      0.20117057	      1.01147759	      0.31140094	     19.00703675	     -9.91169407	      0.34074535	    -64.54487197	     -0.51126980	     -6.89116150	      3.50513407	      4.32104258	     13.70209266	      6.48198530	    -10.93106978	      4.25420958	    -18.51431616	     -5.65956358	    -13.01893492	     -2.32921022	     -1.53624576
